<?xml version="1.0" encoding="utf-8"?>
<!-- Generator: Adobe Illustrator 24.3.0, SVG Export Plug-In . SVG Version: 6.00 Build 0)  -->
<svg version="1.1" id="Layer_1" xmlns="http://www.w3.org/2000/svg" xmlns:xlink="http://www.w3.org/1999/xlink" x="0px" y="0px"
	 viewBox="0 0 100 100" style="enable-background:new 0 0 100 100;" xml:space="preserve">
<style type="text/css">
	.st0{fill:#FEFAE1;}
</style>
<g>
	<path class="st0" d="M98.1,37.6c-0.6,2.3-2.3,3.9-4,5.5c-2.5,2.5-5,4.9-7.4,7.4c-3.3,3.2-7.3,3.2-10.5,0
		c-8.9-8.9-17.8-17.8-26.7-26.7c-3.2-3.2-3.2-7.2,0-10.5c2.7-2.7,5.5-5.4,8.1-8.2c1.4-1.5,2.9-2.8,5-3.2c0.8,0,1.5,0,2.3,0
		c1.9,0.1,3.3,1.2,4.5,2.4c8.8,8.8,17.5,17.5,26.3,26.3c1.3,1.3,2.2,2.7,2.4,4.5C98.1,36,98.1,36.8,98.1,37.6z"/>
	<path class="st0" d="M68.2,55.5c-7.9-7.9-15.8-15.8-23.7-23.7c-1.3-1.3-3-1.9-5.1-2c-0.4,0-1,0.1-1.6,0.2
		c-7.2,1.9-14.3,3.7-21.4,5.6c-2.4,0.6-4,2.2-4.8,4.6c-0.3,0.9-0.3,1.8-0.3,2.7c0,11.4-1.4,22.6-4.2,33.6c-1.3,5.1-2.9,10.1-4.8,15
		c-0.7,1.9-0.5,3.6,0.9,5c1.4,1.5,3.2,1.7,5.1,1c1-0.4,1.9-0.7,2.9-1.1c14.9-5.3,30.3-8,46.1-7.9c3.5,0,6-1.9,6.9-5.3
		c1.9-7,3.7-14,5.6-21.1C70.5,59.8,70,57.4,68.2,55.5z M38.6,72.9c-6.3,0-11.5-5.2-11.5-11.5c0-6.3,5.2-11.5,11.5-11.5
		c6.4,0,11.5,5.1,11.6,11.5C50.2,67.7,45,72.9,38.6,72.9z"/>
</g>
</svg>
