<?xml version="1.0" encoding="utf-8"?>
<!-- Generator: Adobe Illustrator 24.3.0, SVG Export Plug-In . SVG Version: 6.00 Build 0)  -->
<svg version="1.1" id="Layer_1" xmlns="http://www.w3.org/2000/svg" xmlns:xlink="http://www.w3.org/1999/xlink" x="0px" y="0px"
	 viewBox="0 0 100 100" style="enable-background:new 0 0 100 100;" xml:space="preserve">
<style type="text/css">
	.st0{fill:#FEFAE1;}
</style>
<g>
	<g>
		<path class="st0" d="M98,71.8c0,1.4-0.8,2.4-2.3,2.9c-3.7,1.3-7.4,2.5-11.1,3.7c-1.5,0.5-2.4,1.3-2.8,2.8c-1.2,3.7-2.5,7.3-3.7,11
			c-0.6,1.7-1.5,2.5-3,2.4c-1.4,0-2.4-0.8-2.9-2.5c-2.8-9.3-5.7-18.7-8.5-28c-0.4-1.2-0.2-2.3,0.7-3.3c0.9-0.9,2-1,3.2-0.7
			c9.3,2.8,18.7,5.7,28,8.5C97.3,69.3,98,70.3,98,71.8z"/>
		<path class="st0" d="M94.5,17.7c0-6.9-5.4-12.4-12.4-12.4c-22.6,0-45.2,0-67.8,0C7.4,5.3,2,10.8,2,17.7c0,18.4,0,36.8,0,55.2
			c0,7,5.4,12.5,12.4,12.5c16.5,0,33,0,49.6,0c0.8,0,0.9-0.2,0.7-0.9c-1.9-6.2-3.8-12.5-5.7-18.7c-1-3.1-0.5-5.9,1.8-8.3
			c2.3-2.4,5.2-2.9,8.3-2c4.3,1.3,8.7,2.6,13,3.9c4.1,1.3,8.3,2.5,12.4,3.8c0-0.3,0-0.5,0-0.8C94.5,47.6,94.5,32.6,94.5,17.7z
			 M87.5,26.4c-13.1,0-26.2,0-39.3,0c-13.1,0-26.1,0-39.2,0c-0.8,0-1.1-0.1-1.1-1c0.1-2.3,0.1-4.6,0-7c-0.2-4.1,2.9-7.1,7.1-7.1
			c20,0.1,40,0,60.1,0c2.2,0,4.4,0,6.7,0c4.2,0,6.8,2.6,6.8,6.8c0,2.4,0,4.8,0,7.2C88.5,26.1,88.4,26.4,87.5,26.4z"/>
	</g>
	<path class="st0" d="M18.2,16.1c1.4,0,2.6,1.2,2.6,2.6c0,1.5-1.2,2.7-2.7,2.7c-1.4,0-2.6-1.2-2.7-2.7
		C15.5,17.3,16.8,16.1,18.2,16.1z"/>
	<path class="st0" d="M25,18.8c0-1.4,1.1-2.7,2.6-2.7c1.5-0.1,2.7,1.1,2.7,2.6c0,1.5-1.2,2.7-2.7,2.7C26.2,21.5,25,20.3,25,18.8z"/>
	<path class="st0" d="M39.7,18.8c0,1.5-1.3,2.7-2.7,2.7c-1.4,0-2.6-1.2-2.6-2.7c0-1.5,1.2-2.7,2.7-2.7
		C38.6,16.2,39.7,17.3,39.7,18.8z"/>
</g>
</svg>
