<?xml version="1.0" encoding="utf-8"?>
<!-- Generator: Adobe Illustrator 24.3.0, SVG Export Plug-In . SVG Version: 6.00 Build 0)  -->
<svg version="1.1" id="Layer_1" xmlns="http://www.w3.org/2000/svg" xmlns:xlink="http://www.w3.org/1999/xlink" x="0px" y="0px"
	 viewBox="0 0 110 100" style="enable-background:new 0 0 110 100;" xml:space="preserve">
<style type="text/css">
	.st0{fill:#FEFAE1;}
</style>
<g>
	<path class="st0" d="M108.4,31c-0.3,0.2-0.3,0.6-0.4,0.9c-0.4,1.2-1.1,2.4-2.2,2.9c-1.4,0.7-1.7,1.9-2,3.3
		c-2,8.6-4.1,17.2-6.1,25.7c-0.6,2.3-1.5,3.1-3.8,3.1c-25.9,0.1-51.9,0.2-77.8,0.2c-2.1,0-3.1-0.8-3.6-3c-2.1-9-4.2-17.8-6.3-26.8
		c-0.2-1-0.6-1.6-1.4-2.2c-3.2-1.9-4.1-6.2-2.1-9.4c2-3.1,6.3-3.8,9-1.5c3,2.4,3.3,6.9,0.8,9.8c-0.4,0.5-0.4,0.7,0,1.2
		c2.5,2.7,5,5.4,7.5,7.9c5.2,5.4,12.8,4.9,17.2-1.3c4.3-6.1,8.6-12.1,12.9-18c0.3-0.5,0.3-0.8,0-1.3c-2.1-2.6-1.8-6.3,0.6-8.6
		c2.4-2.3,6.1-2.4,8.5-0.1c2.4,2.2,2.8,6.1,0.8,8.8c-0.3,0.5-0.3,0.8,0,1.3C64.3,30,68.5,36,72.8,42c4.4,6.2,12.1,6.8,17.3,1.3
		c2.5-2.6,5-5.2,7.5-7.8c0.4-0.5,0.6-0.7,0.1-1.2c-1.9-2.1-2.3-5-1.2-7.4c1.2-2.7,3.5-4.1,6.5-3.7c2.4,0.2,4.5,2.2,5.3,4.9
		c0.1,0.2,0.1,0.3,0.2,0.6C108.4,29.4,108.4,30.2,108.4,31z"/>
	<path class="st0" d="M55.1,87.9c-12.7,0-25.3,0-38,0c-2.6,0-3.8-1-3.8-4c0-2.1,0-4.2,0-6.3c0-2.6,1.1-3.7,3.6-3.7
		c5.3,0,10.5,0,15.8,0c20.1,0,40.2,0,60.2,0c2.8,0,3.9,1.2,3.9,4.1c0,2.1,0,4.1,0,6.2c0,2.4-1.1,3.7-3.5,3.7
		C80.6,87.9,67.9,87.9,55.1,87.9z"/>
</g>
</svg>
