<?xml version="1.0" encoding="utf-8"?>
<!-- Generator: Adobe Illustrator 24.3.0, SVG Export Plug-In . SVG Version: 6.00 Build 0)  -->
<svg version="1.1" id="Layer_1" xmlns="http://www.w3.org/2000/svg" xmlns:xlink="http://www.w3.org/1999/xlink" x="0px" y="0px"
	 viewBox="0 0 100 100" style="enable-background:new 0 0 100 100;" xml:space="preserve">
<style type="text/css">
	.st0{fill:#FEFAE1;}
</style>
<g>
	<path class="st0" d="M94.2,72.5V35.9c1.4,1.3,2.6,2.4,3.8,3.5c0.3,0.3,0.2,0.6,0.2,1c0,9.3,0,18.5,0,27.8c0,0.4,0,0.7-0.3,1
		C96.7,70.2,95.6,71.3,94.2,72.5z"/>
	<path class="st0" d="M5.8,36.2v36.4c-1.4-1.3-2.7-2.5-3.9-3.7c-0.2-0.2-0.1-0.7-0.1-1c0-9.1,0-18.3,0-27.4c0-0.7,0.2-1.2,0.7-1.6
		c0.9-0.8,1.7-1.6,2.6-2.4C5.3,36.3,5.5,36,5.8,36.2z"/>
	<path class="st0" d="M66.8,6.2H33.2c1.1-1.4,2.1-2.7,3.1-3.9c0.3-0.4,0.6-0.3,1-0.3c8.5,0,17.1,0,25.6,0c0.4,0,0.7,0,1,0.3
		C64.8,3.5,65.7,4.8,66.8,6.2z"/>
	<path class="st0" d="M9.9,77.7h7c3.4,0,6.9,0,10.3,0c0.5,0,1.2-0.4,1.2,0.8c0,1.2-0.5,2.2-1.3,2.2c-1.4,0-2.8,0-4.1,0
		c-3.3,0-6.6-0.1-10,0c-1.1,0-1.8-0.3-2.2-1.4C10.6,78.8,10.3,78.4,9.9,77.7z"/>
	<path class="st0" d="M90.1,77.7c-0.6,1-1,1.8-1.4,2.6c-0.2,0.4-0.6,0.4-0.9,0.4c-4.9,0-9.8,0-14.7,0c-0.7,0-0.9-0.5-1.2-1
		c-0.3-0.6-0.2-1.2-0.1-1.9c0-0.3,0.4-0.2,0.6-0.2C78.1,77.7,84,77.7,90.1,77.7z"/>
	<path class="st0" d="M9.9,30.7c0.6-1,1-1.7,1.4-2.5c0.2-0.5,0.6-0.5,1-0.5c4.9,0,9.7,0,14.6,0c1.1,0,2,1.6,1.5,2.7
		c-0.1,0.3-0.4,0.3-0.6,0.3C21.9,30.7,16,30.7,9.9,30.7z"/>
	<path class="st0" d="M90.1,30.7H79.9c-2.4,0-4.9,0-7.3,0c-0.9,0-1.1-0.3-1-1.2c0.1-1.2,0.6-1.8,1.8-1.8c4.5,0,9,0,13.5,0
		c1.2,0,2,0.3,2.4,1.5C89.4,29.7,89.7,30.1,90.1,30.7z"/>
	<path class="st0" d="M66.9,98.1c0.4,0,0.7,0,1.1,0c0.9,0.2,1.1-0.3,1.1-1.2c0-5.9,0-11.8,0-17.6c0-0.9,0.3-2.1-0.1-2.8
		s-1.5-0.2-2.4-0.2c-0.8-0.1-1.3-0.6-1.3-1.4c0-0.8,0.4-1.4,1.2-1.3c1,0.1,1.5-0.2,1.4-1.4c-0.1-0.8,0.4-1.3,1.2-1.3
		c0.8,0,1.2,0.5,1.3,1.3c0.1,0.6,0.1,1.1,0,1.7c-0.1,0.9,0.2,1.2,1,1.2c6.4,0,12.8,0,19.2,0c0.9,0,1.1-0.3,1.1-1.2
		c0-13,0-26.1,0-39.1c0-0.9-0.2-1.1-1.1-1.1c-6.1,0-12.2,0-18.3,0c-2,0-2,0-2,2.2c0,0.3,0,0.5,0,0.8c-0.1,0.7-0.6,1.2-1.2,1.1
		c-0.7,0-1.3-0.5-1.2-1.2c0.1-1.2-0.3-1.7-1.4-1.6c-0.8,0.1-1.1-0.6-1.1-1.3c0-0.8,0.4-1.3,1.2-1.3c0.5,0,1-0.1,1.4,0
		c0.9,0.1,1.2-0.2,1.2-1.3c0-6.9,0-13.8,0-20.7c0-1-0.2-1.2-1.1-1.2C56,9,44,9,32,9c-0.9,0-1.1,0.2-1.1,1.2c0,6.4,0,12.9,0,19.3
		c0,2.5,0,2.5,2.3,2.7c0,0,0.1,0,0.1,0c0.8,0,1.3,0.5,1.3,1.3c0,0.8-0.4,1.4-1.3,1.3c-1.1-0.1-1.3,0.3-1.3,1.4
		c0.1,0.9-0.5,1.4-1.3,1.4c-0.7,0-1.2-0.5-1.2-1.3c-0.1-0.6-0.1-1.2,0-1.8c0.1-0.9-0.2-1.1-1-1c-6.5,0-12.9,0-19.4,0
		c-0.8,0-1,0.2-1,1.1c0,6.5,0,13,0,19.6s0,13,0,19.6c0,1,0.2,1.2,1.1,1.2c6,0,11.9,0,17.9,0c2.2,0,2.2,0,2.3-2.4
		c0-0.2,0-0.4,0.1-0.6c0.2-0.7,0.6-1.1,1.3-1c0.7,0,1.2,0.5,1.2,1.2c-0.1,1.2,0.2,1.7,1.4,1.6c0.7-0.1,1.2,0.5,1.2,1.3
		c0,0.8-0.4,1.4-1.3,1.4c-0.5,0-1,0.1-1.4,0c-0.9-0.1-1.1,0.3-1.1,1.2c0,6.1,0,12.3,0,18.4c0,2.2,0,2.2,2.1,2.2c0.2,0,0.4,0,0.6,0
		 M32.2,56.8c0,0.9-0.5,1.4-1.3,1.4c-0.7,0-1.2-0.5-1.2-1.3c0-1.8,0-3.6,0-5.4c0-0.8,0.5-1.3,1.3-1.2c0.8,0,1.2,0.5,1.3,1.4
		c0,0.9,0,1.7,0,2.6S32.2,55.9,32.2,56.8z M29.7,41.3c0-0.8,0.5-1.3,1.2-1.3c0.8,0,1.3,0.5,1.3,1.4c0,0.9,0,1.7,0,2.6s0,1.7,0,2.6
		c0,0.8-0.5,1.3-1.2,1.3c-0.8,0.1-1.3-0.5-1.3-1.3C29.6,44.8,29.6,43.1,29.7,41.3L29.7,41.3z M32.2,67c0,0.9-0.5,1.4-1.3,1.4
		c-0.7,0-1.2-0.5-1.2-1.3c0-1.8-0.1-3.5,0-5.3c0-0.8,0.5-1.3,1.3-1.3c0.7,0,1.2,0.5,1.2,1.3c0,0.9,0,1.7,0,2.6S32.2,66.2,32.2,67
		L32.2,67z M47.4,32.2c1.7-0.1,3.4-0.1,5.1,0c0.8,0,1.1,0.6,1.1,1.4c0,0.8-0.4,1.3-1.2,1.3c-0.8,0-1.7,0-2.5,0l0,0
		c-0.8,0-1.6,0-2.4,0c-0.7,0-1.1-0.5-1.1-1.2C46.4,32.8,46.7,32.2,47.4,32.2z M38.2,32.2c0.8,0,1.6,0,2.4,0s1.6,0,2.4,0
		c0.8,0,1.2,0.5,1.2,1.4c0,0.8-0.4,1.3-1.2,1.3c-1.6,0-3.2,0-4.7,0c-0.8,0-1.3-0.4-1.3-1.3C36.9,32.6,37.4,32.2,38.2,32.2L38.2,32.2
		z M38.2,98.1c0.8,0,1.6,0,2.4,0c0.7,0,1.5,0,2.2,0 M44.1,75c0,0.9-0.5,1.3-1.3,1.3c-0.8,0-1.5,0-2.3,0c-0.8,0-1.6,0-2.4,0
		c-0.7,0-1.2-0.4-1.2-1.3c-0.1-0.9,0.4-1.4,1.2-1.5c1.6-0.1,3.2-0.1,4.8,0C43.7,73.6,44.2,74.1,44.1,75L44.1,75z M47.6,98.1
		c0.8,0,1.7,0,2.5,0c0.8,0,1.6,0,2.4,0 M53.6,75c0,0.8-0.4,1.3-1.2,1.3c-0.8,0-1.7,0-2.5,0c-0.8,0-1.5,0-2.3,0
		c-0.8,0-1.2-0.4-1.3-1.2c-0.1-0.9,0.3-1.5,1.1-1.5c1.7-0.1,3.3-0.1,5,0C53.2,73.6,53.6,74.1,53.6,75L53.6,75z M57,32.1
		c1.6,0,3.2,0,4.8,0c0.8,0,1.2,0.5,1.2,1.4s-0.5,1.3-1.3,1.3c-0.7,0-1.5,0-2.3,0c-0.8,0-1.6,0-2.4,0c-0.8,0-1.2-0.5-1.3-1.4
		C55.9,32.6,56.3,32.1,57,32.1L57,32.1z M57,98.1c1.6,0,3.2,0,4.8,0 M63.1,75c0,0.8-0.5,1.2-1.2,1.3c-0.8,0-1.6,0-2.4,0
		c-0.8,0-1.6,0-2.4,0c-0.8,0-1.2-0.5-1.2-1.4c0-0.8,0.4-1.3,1.2-1.3c1.6-0.1,3.2-0.1,4.9,0C62.6,73.5,63.1,74.1,63.1,75L63.1,75z
		 M67.8,41.4c0-0.9,0.5-1.4,1.2-1.4c0.8,0,1.3,0.5,1.3,1.4c0,1.7,0,3.4,0,5.1c0,0.8-0.5,1.4-1.3,1.3c-0.8,0-1.2-0.5-1.2-1.4
		c0-0.9,0-1.7,0-2.6C67.8,43,67.8,42.2,67.8,41.4L67.8,41.4z M70.3,67c0,0.8-0.5,1.4-1.3,1.3c-0.8,0-1.2-0.5-1.2-1.4
		c0-1.7,0-3.3,0-5c0-0.8,0.4-1.4,1.2-1.4s1.2,0.5,1.3,1.3c0.1,0.8,0,1.7,0,2.6C70.4,65.3,70.4,66.2,70.3,67L70.3,67z M70.3,56.8
		c0,0.8-0.6,1.3-1.3,1.3c-0.7,0-1.2-0.5-1.2-1.3c0-0.9,0-1.7,0-2.6c0-0.9,0-1.7,0-2.6c0-0.8,0.5-1.3,1.2-1.3
		c0.8-0.1,1.3,0.4,1.3,1.3C70.4,53.3,70.4,55.1,70.3,56.8L70.3,56.8z"/>
</g>
<g>
	<text transform="matrix(1 0 0 1 31.9702 540)" style="font-family:'MyriadPro-Regular'; font-size:12px;">FEFAE1</text>
</g>
</svg>
